<mxfile host="app.diagrams.net" agent="Mozilla/5.0 (Macintosh; Intel Mac OS X 10_15_7) AppleWebKit/537.36 (KHTML, like Gecko) Chrome/138.0.0.0 Safari/537.36" version="28.1.2">
  <diagram name="第 1 页" id="p5k0g1dkFpZWb_CXXdK0">
    <mxGraphModel dx="570" dy="624" grid="0" gridSize="10" guides="1" tooltips="1" connect="1" arrows="1" fold="1" page="0" pageScale="1" pageWidth="827" pageHeight="1169" math="0" shadow="0">
      <root>
        <mxCell id="0" />
        <mxCell id="1" parent="0" />
        <mxCell id="GOwJcSeZGDK8H1ZfP2Of-6" style="edgeStyle=orthogonalEdgeStyle;rounded=0;orthogonalLoop=1;jettySize=auto;html=1;" edge="1" parent="1" source="GOwJcSeZGDK8H1ZfP2Of-1" target="GOwJcSeZGDK8H1ZfP2Of-2">
          <mxGeometry relative="1" as="geometry" />
        </mxCell>
        <mxCell id="GOwJcSeZGDK8H1ZfP2Of-1" value="物理、动画控制" style="rounded=0;whiteSpace=wrap;html=1;" vertex="1" parent="1">
          <mxGeometry x="488" y="443" width="114" height="44" as="geometry" />
        </mxCell>
        <mxCell id="GOwJcSeZGDK8H1ZfP2Of-5" style="edgeStyle=orthogonalEdgeStyle;rounded=0;orthogonalLoop=1;jettySize=auto;html=1;" edge="1" parent="1" source="GOwJcSeZGDK8H1ZfP2Of-2" target="GOwJcSeZGDK8H1ZfP2Of-4">
          <mxGeometry relative="1" as="geometry" />
        </mxCell>
        <mxCell id="GOwJcSeZGDK8H1ZfP2Of-2" value="寻路移动能力" style="rounded=0;whiteSpace=wrap;html=1;" vertex="1" parent="1">
          <mxGeometry x="488" y="349" width="114" height="44" as="geometry" />
        </mxCell>
        <mxCell id="GOwJcSeZGDK8H1ZfP2Of-3" value="玩法规则、技能、网络同步等等" style="rounded=0;whiteSpace=wrap;html=1;" vertex="1" parent="1">
          <mxGeometry x="646" y="349" width="215" height="44" as="geometry" />
        </mxCell>
        <mxCell id="GOwJcSeZGDK8H1ZfP2Of-4" value="AI决策" style="rounded=0;whiteSpace=wrap;html=1;" vertex="1" parent="1">
          <mxGeometry x="488" y="249" width="114" height="44" as="geometry" />
        </mxCell>
        <mxCell id="GOwJcSeZGDK8H1ZfP2Of-8" value="" style="endArrow=classic;html=1;rounded=0;" edge="1" parent="1" source="GOwJcSeZGDK8H1ZfP2Of-3" target="GOwJcSeZGDK8H1ZfP2Of-4">
          <mxGeometry width="50" height="50" relative="1" as="geometry">
            <mxPoint x="582" y="365" as="sourcePoint" />
            <mxPoint x="632" y="315" as="targetPoint" />
          </mxGeometry>
        </mxCell>
      </root>
    </mxGraphModel>
  </diagram>
</mxfile>
